<svg xmlns="http://www.w3.org/2000/svg" xmlns:xlink="http://www.w3.org/1999/xlink" xmlns:inkscape="http://www.inkscape.org/namespaces/inkscape" version="1.1" width="595.2756" height="841.8898" viewBox="0 0 595.2756 841.8898">
<g inkscape:groupmode="layer" inkscape:label="Layer 1">
<path transform="matrix(1,0,0,-1,0,841.8898)" d="M184.7007 489.329C179.4501 473.3104 178.3474 451.7425 179.7795 424.806 189.3444 448.5288 212.1216 474.3743 231.9077 489.8387 215.0113 489.9059 200.7658 489.5629 184.7007 489.329ZM180.9933 396.7662C181.1092 371.1759 183.8409 351.1304 190.3269 328.2418 303.389 301.5785 306.7605 334.5004 296.2826 486.625 279.0176 488.759 263.2748 489.57 244.5849 489.7854 212.599 463.7106 191.5016 437.4065 180.9933 396.7662" fill="#2e3092" fill-rule="evenodd"/>
<path transform="matrix(1,0,0,-1,0,841.8898)" d="M212.0091 393.6705C213.9066 393.33 215.636 392.7691 217.2104 391.9697 218.7839 391.1871 220.2463 390.0983 221.5973 388.7382L216.6863 413.2431ZM212.1432 419.2801C212.2773 419.7739 212.366 420.2836 212.4334 420.7774 212.5001 421.27 212.5338 421.7462 212.5338 422.2225 212.5338 422.9881 212.3892 423.6338 212.1097 424.1611 211.8311 424.6877 211.373 425.1813 210.7366 425.6065V428.4468H231.1067V425.6065C230.5369 425.2663 230.0905 424.8411 229.7676 424.2801 229.4436 423.7362 229.2758 423.1403 229.2758 422.5119 229.2758 422.1204 229.3098 421.6952 229.354 421.219 229.4099 420.7601 229.5323 420.0968 229.7001 419.2291L239.8683 373.4507C240.8287 369.1655 241.6768 366.41 242.3914 365.2033 243.1057 363.9787 244.0321 363.333 245.1705 363.2309V360.3903H222.3116V363.2309C223.528 363.5708 224.4093 364.1831 224.9453 365.0672 225.4816 365.9686 225.7495 367.2604 225.7495 368.9612 225.7495 373.3824 224.2752 377.2426 221.3512 380.5764 218.4157 383.8918 214.6992 385.7797 210.2122 386.2046L207.6007 374.9984C207.265 373.5357 207.0201 372.2091 206.8407 371.0358 206.674 369.845 206.5844 368.8588 206.5844 368.0597 206.5844 366.4613 206.8747 365.2705 207.4666 364.4549 208.0576 363.6386 208.9281 363.2309 210.0784 363.2309V360.3903H194.9431V363.2309C196.4721 363.6896 197.7004 364.693 198.6375 366.2408 199.5758 367.7879 200.6467 371.0358 201.8412 375.9846Z" fill="#ffffff" fill-rule="evenodd"/>
<path transform="matrix(1,0,0,-1,0,841.8898)" d="M277.5725 404.3832C283.3435 401.7648 287.2355 398.9585 289.2464 395.966 291.2584 392.9723 292.2642 388.9089 292.2642 383.756 292.2642 376.3585 290.1563 370.3561 285.9542 365.798 281.7391 361.2237 276.1591 358.9452 269.2148 358.9452 266.4363 358.9452 263.3831 359.3534 260.0782 360.1698 256.7735 360.9853 254.8335 361.3941 254.2706 361.3941 253.6123 361.3941 252.9777 361.2407 252.3674 360.9179 251.7449 360.595 251.0382 360.0502 250.236 359.2508L249.0146 388.0412 250.9784 388.1432C251.7321 381.4268 253.5049 376.2564 256.3308 372.6343 259.1439 369.0122 262.796 367.2094 267.2867 367.2094 270.3283 367.2094 272.6748 368.0084 274.3387 369.608 276.0038 371.1892 276.8301 373.4172 276.8301 376.2737 276.8301 380.372 274.1712 383.6027 268.867 386.0002 268.2564 386.2729 267.8014 386.4603 267.4899 386.5961L261.7432 389.2827C257.6237 391.1871 254.6062 393.6869 252.6905 396.7824 250.7749 399.8945 249.8165 403.8571 249.8165 408.6686 249.8165 415.1143 251.4574 420.2663 254.7258 424.1103 258.0075 427.9706 262.4488 429.8916 268.0645 429.8916 270.1009 429.8916 272.7232 429.5514 275.9315 428.872 279.1525 428.1911 281.344 427.8509 282.5172 427.8509 282.9606 427.8509 283.4512 427.9706 283.9901 428.2248 284.5293 428.4802 285.1517 428.872 285.8817 429.4494L287.3906 407.8182 285.3913 407.4279C283.7271 412.0024 281.7266 415.5559 279.3682 418.0558 277.0209 420.5554 274.5306 421.8148 271.8845 421.8148 269.8971 421.8148 268.2808 421.134 267.035 419.7903 265.8019 418.4473 265.1791 416.7465 265.1791 414.6891 265.1791 412.9376 265.5984 411.5086 266.4488 410.4204 267.2867 409.3155 268.9747 408.1935 271.5256 407.0364Z" fill="#ffffff" fill-rule="evenodd"/>
<path transform="matrix(1,0,0,-1,0,841.8898)" d="M310.8526 503.6604 310.6534 503.1737C287.9084 503.7599 273.8061 501.3618 257.5979 500.8243L280.0301 516.1473 275.9519 518.5363C266.2455 512.7644 257.1738 506.8372 248.7373 500.7385 239.3691 500.8867 228.8237 501.8301 215.3982 504.3532L214.4806 491.6971C221.4575 499.9207 230.1375 499.2486 243.9686 497.2212 223.2232 481.6196 206.57 464.9618 194.1338 447.1988 186.3598 436.102 180.1755 424.1387 175.6431 411.7048 172.6401 443.6606 172.0585 474.8513 177.944 506.6447 171.8082 627.8888 174.3919 583.8888 323.5691 598.8991V600.637C258.5849 609.4191 186.9231 615.71 172.6679 600.637 156.9022 583.9931 170.2908 519.7204 166.6412 495.2863 159.8981 439.77 161.5436 390.8877 167.5239 343.616 167.5517 343.6506 167.582 343.6809 167.6095 343.7133 168.7056 334.813 170.6729 326.0358 173.5299 317.5019 173.5112 317.3837 173.4857 317.2632 173.4698 317.1495 173.5532 317.0849 173.6365 317.0245 173.7153 316.9528 180.0782 298.228 190.7555 278.771 206.0555 263.9041 232.4197 238.3951 271.4868 225.8685 313.5104 226.9806 353.0639 228.3386 393.6623 256.5286 415.4224 288.9986 417.0677 261.974 425.5089 246.7089 445.733 251.8622 433.5795 256.7327 425.4857 273.0246 419.7047 295.7973 463.5102 369.9479 426.8299 464.2183 360.3745 512.5397 351.6409 505.762 342.5856 499.2673 333.104 493.5668V519.3567C339.1957 525.3605 340.1782 532.921 329.1301 532.921 319.1803 532.921 316.8862 524.4474 324.8087 519.3567 325.3045 511.9625 325.3507 492.3298 325.0451 481.9813L324.8087 235.0165C305.7225 232.3658 286.6269 233.9158 267.5339 237.8112 227.2479 249.406 199.3915 276.8037 185.3938 310.3858 357.895 263.8973 311.8348 370.7101 310.8526 503.6604ZM250.8412 496.2084C263.9631 494.2922 281.147 492.2368 304.4852 494.6142L304.4503 493.8891C297.631 368.1845 342.002 290.8131 186.6146 323.2831L186.6056 323.3339C181.1625 346.6003 176.8272 369.146 177.7842 391.7659 180.5808 405.8195 185.4609 419.7291 192.5351 433.004 204.3479 454.9706 221.6313 474.6127 244.5849 491.9335ZM333.104 400.4691C349.9634 397.2461 366.7119 399.3871 382.7602 405.2517 373.8881 435.5042 354.8735 461.433 333.104 483.7493ZM333.104 322.6575C339.8907 323.1765 346.6406 323.7812 353.4486 323.89 365.2427 324.0663 376.9279 321.8233 388.3238 318.9084 390.9654 345.9609 391.9802 373.2936 385.0333 399.8577 367.9586 393.7657 350.8464 393.5942 333.104 395.2879ZM333.104 237.403C363.7018 251.2945 379.6438 280.65 386.4002 312.2929 368.2063 318.454 351.9125 319.6845 333.104 317.1311ZM337.085 488.3927C358.2196 467.7262 373.684 446.381 383.6684 424.3448 408.2511 370.0916 405.6375 288.4683 358.4511 246.8154 448.8497 294.4879 413.8492 443.5217 350.7188 495.7637ZM384.315 485.5867 382.9686 485.7165C382.8481 485.7211 382.7534 485.7744 382.6814 485.8554 382.6468 485.8997 382.6259 485.941 382.6097 485.9969 382.5981 486.0547 382.591 486.1057 382.5933 486.1474L382.7186 487.758C382.6882 487.9293 382.7302 488.0639 382.8436 488.1472 382.9017 488.196 382.9966 488.228 383.1194 488.2329L384.9129 488.0035C385.0217 487.978 385.1031 487.9315 385.1399 487.8831 385.251 487.7603 385.2743 487.6189 385.2303 487.4545L385.1399 486.3353C385.1306 486.2123 385.1376 486.1312 385.1722 486.0941 385.2003 486.0686 385.2882 486.0456 385.448 486.0317L386.727 485.8719C386.8359 485.8415 386.9334 485.7905 387.0028 485.7026 387.0981 485.5961 387.1278 485.4711 387.1074 485.3157L387.0051 483.6682C386.9957 483.6124 386.9751 483.571 386.9566 483.529 386.924 483.4942 386.9033 483.4528 386.8639 483.4273 386.7619 483.3414 386.6159 483.3298 386.4467 483.3901L384.8111 483.5546C384.6926 483.5942 384.5999 483.6518 384.5443 483.7192 384.4587 483.8233 384.4193 483.9137 384.4284 484.0019L384.5653 485.2344C384.5792 485.4013 384.5721 485.494 384.5582 485.5195 384.5305 485.5518 384.4471 485.5728 384.315 485.5867ZM421.3242 315.6202C421.3729 315.8799 421.3264 316.158 421.1782 316.4428 421.0483 316.707 420.8539 316.9528 420.59 317.1821 420.33 316.8969 420.0636 316.5403 419.8136 316.1186 419.6605 315.8518 419.4519 315.4697 419.2041 314.9714 419.6001 314.9646 419.8969 314.9646 420.0962 314.9714 420.7079 315.0201 421.0809 315.129 421.2037 315.305 421.2663 315.4209 421.3083 315.5301 421.3242 315.6202ZM416.5787 321.1189 417.1881 324.4071 417.4917 326.0472C417.5521 326.374 417.9413 326.5642 418.648 326.6476 419.2529 326.7125 419.8717 326.687 420.518 326.5688 420.5965 326.5549 420.6685 326.5455 420.7402 326.5316 420.8145 326.5177 420.8817 326.4993 420.9537 326.4644 420.7751 326.9256 420.4369 327.4792 419.934 328.1374 419.3059 328.9646 418.9283 329.4746 418.8172 329.6667 418.4881 330.2413 418.3676 330.7629 418.4487 331.2193L419.2761 335.6983 419.313 335.6912 420.4159 350.229 420.3814 350.2312 420.3904 352.203C420.3975 352.7478 420.5529 353.1696 420.861 353.4797 421.1135 353.7281 421.5005 353.9319 422.0127 354.0662 422.1167 354.1034 422.6102 354.1912 423.4791 354.3627 423.3818 354.5575 423.1225 354.7704 422.7055 355.0139 422.0541 355.3801 421.702 355.5816 421.6439 355.6256 421.2896 355.8969 421.1203 356.1817 421.1158 356.4967 421.1135 356.5942 421.1181 356.6707 421.1368 356.7263 421.2595 357.1713 421.3706 357.5534 421.452 357.8848 421.7576 359.0436 421.9081 360.0028 421.9104 360.7744L422.3415 360.7489C423.3078 360.7444 424.1466 360.6423 424.8604 360.4337 425.4327 360.2645 425.8242 360.0329 426.0399 359.7596 426.5169 359.4489 427.0314 358.8812 427.5714 358.0566 428.1599 357.1526 428.5304 356.3022 428.6974 355.4935L429.5687 355.7809 432.1083 353.9758C431.5173 353.8369 430.6484 353.6629 429.5035 353.4384 429.2603 353.3941 428.3385 353.2275 426.7395 352.9329 425.7014 352.7433 424.9576 352.5973 424.5009 352.4905 424.0678 352.3978 423.7781 352.2798 423.6437 352.1407 423.5372 352.0227 423.4861 351.807 423.4813 351.508 423.4791 351.4294 423.4813 351.3552 423.4768 351.2764 423.4813 351.2186 423.4745 351.1653 423.4745 351.112L423.5905 351.1026 423.4768 349.5898C423.4632 349.4066 423.5278 349.2142 423.6809 349.0126 423.822 348.8111 423.968 348.6115 424.1188 348.4103 424.6353 348.431 425.5461 348.4749 426.8438 348.5608 428.1437 348.6441 429.2629 348.7277 430.1991 348.8017 431.3228 348.9035 431.9252 348.971 431.9901 349.0172 432.201 349.1121 432.3402 349.17 432.4164 349.1861 432.4978 349.1932 432.618 349.2397 432.7756 349.3066 432.8056 349.2884 433.3479 348.8734 434.4066 348.0741 434.8378 347.745 435.132 347.5134 435.299 347.3719 434.5642 347.2237 433.8646 346.9433 433.188 346.5357 432.6063 346.1879 432.2126 345.8565 431.9691 345.53 431.7885 345.7108 431.5961 345.875 431.4107 346.049 431.2185 346.218 431.0237 346.4175 430.8106 346.6491 430.7783 346.6536 430.7179 346.6723 430.6068 346.6723 430.2938 346.7024 429.7586 346.6933 429.0032 346.6446 428.7716 346.6329 428.2688 346.5981 427.4994 346.5403L426.8044 346.5519C426.3803 346.5794 425.9979 346.663 425.6481 346.788 425.3029 346.9017 424.946 347.0893 424.5729 347.3442 424.904 346.9249 425.3352 346.1579 425.8916 345.0294 426.4756 343.8269 426.9572 342.6661 427.3441 341.5558 427.7937 340.2283 427.9978 339.2297 427.9442 338.5621 427.9051 338.0131 427.379 337.339 426.3571 336.5184 425.3445 335.6912 424.4825 335.272 423.7688 335.2439 423.5649 335.2212 423.3657 335.2164 423.1619 335.2348 422.9254 335.2439 422.6751 335.2904 422.3971 335.3462L422.3322 334.5052 422.2094 334.5188 421.5722 331.0756C421.431 330.2949 421.4818 329.3819 421.7275 328.3299 421.9058 327.7276 422.0127 327.3333 422.0657 327.1388 422.5941 327.7437 423.0782 328.4433 423.5162 329.2311 423.8986 329.9261 424.1327 330.4755 424.2044 330.8717 424.3042 331.4024 424.2903 331.8681 424.1744 332.2806 424.0956 332.5377 423.9264 332.9039 423.646 333.3903 424.135 333.2075 424.5846 332.985 425.0015 332.744 425.6042 332.3801 426.0813 331.9863 426.4381 331.5645 426.8854 331.0339 427.1335 330.4593 427.1681 329.8544 427.1658 329.639 427.1474 329.4142 427.1009 329.1897 426.992 328.5918 426.721 327.9078 426.3038 327.1459 425.9424 326.5109 425.4466 325.7717 424.8278 324.9329 424.4176 324.2911 424.0723 323.5473 423.7943 322.7156 423.5743 322.0432 423.3889 321.2674 423.222 320.3844 422.8398 320.6438 422.4019 320.9406 421.9036 321.2742 421.3774 321.6495 420.9769 321.9228 420.7173 322.1014 420.9282 322.4398 421.0764 322.8429 421.16 323.2902 421.2269 323.6516 421.2618 324.0522 421.2547 324.4762 421.2573 324.8195 421.2201 325.2458 421.1646 325.7529 420.9582 325.7668 420.7983 325.7209 420.6872 325.6234 420.5942 325.5469 420.5341 325.4567 420.5157 325.3405L420.2354 323.8719 419.6327 320.5743 419.4221 319.4527C420.2376 319.1054 421.0254 318.5722 421.7854 317.8655 422.5989 317.122 423.2197 316.3317 423.6644 315.4997 423.7897 315.2336 423.885 314.9461 423.9519 314.6448 424.0193 314.3412 424.0261 314.0563 423.9751 313.8038 423.9286 313.5719 423.8501 313.382 423.7319 313.2292 423.6157 313.0855 423.4399 312.988 423.2103 312.9372 422.9254 312.8581 422.4042 312.8006 421.6465 312.7609 420.7635 312.7147 420.1498 312.6637 419.7949 312.6149 419.1279 312.5177 418.6641 312.3601 418.4118 312.1447 418.1822 312.3743 417.8047 312.7263 417.2601 313.1943 416.6668 313.6946 416.0923 314.193 415.5106 314.691 415.6333 315.1219 416.0041 315.8589 416.6368 316.8714 417.2624 317.8981 417.712 318.5541 418.0107 318.8597 417.6632 319.1216 417.3202 319.3903 416.9752 319.6474 416.6065 320.0414 416.4721 320.5304 416.5787 321.1189ZM423.2684 346.8277 422.6031 338.1103C423.2985 338.2563 423.9147 338.5925 424.4479 339.1277 424.9599 339.6305 425.2309 340.1286 425.2728 340.6224 425.3216 341.2661 425.2402 341.9799 425.0477 342.7586 424.8743 343.4142 424.6101 344.1396 424.2484 344.9367 423.9706 345.5532 423.6483 346.1879 423.2684 346.8277ZM433.1441 358.1096 432.1964 359.0552C432.1106 359.1315 432.0711 359.2287 432.0711 359.3424 432.0666 359.3957 432.0873 359.4419 432.1057 359.4932 432.1312 359.5462 432.1638 359.5833 432.1871 359.6159L433.3504 360.7767C433.4406 360.9227 433.5565 360.9921 433.6999 360.9944 433.7858 360.9967 433.8714 360.9573 433.9664 360.8855L435.1901 359.5856C435.2596 359.4954 435.2896 359.4163 435.2896 359.3472 435.2919 359.1848 435.2156 359.0691 435.0719 358.9693L434.2654 358.1629C434.1776 358.077 434.1356 358.0101 434.1356 357.9565 434.1356 357.9174 434.1915 357.8525 434.3094 357.7365L435.1785 356.8119C435.2434 356.7263 435.278 356.6222 435.2757 356.5037 435.278 356.3717 435.2227 356.256 435.0974 356.154L433.946 354.9538C433.8995 354.9163 433.8553 354.8982 433.8136 354.882 433.7651 354.8679 433.7186 354.8588 433.6767 354.8588 433.5333 354.8588 433.4151 354.9396 433.3272 355.0927L432.18 356.2444C432.1174 356.3484 432.0896 356.4482 432.0896 356.5363 432.0873 356.6707 432.1222 356.7634 432.1826 356.8235L433.1021 357.6832C433.2229 357.8014 433.2784 357.8803 433.2807 357.9058 433.2807 357.9474 433.23 358.0194 433.1441 358.1096ZM427.2052 355.3291C427.1451 355.5051 427.0292 355.6721 426.867 355.8271 426.8299 355.8643 426.5031 356.0936 425.9169 356.5131 425.7799 356.9185 425.6549 357.3241 425.5345 357.7249 425.3746 358.1306 425.1291 358.4432 424.7813 358.689 424.6214 358.3667 424.4803 357.9012 424.3527 357.294 424.2277 356.6914 424.1605 356.1216 424.1628 355.57 424.1605 355.3543 424.1699 355.1715 424.1906 355.0164 424.209 354.8517 424.2393 354.7106 424.2858 354.5875 424.5707 354.6848 425.1291 354.8239 425.9656 355.0232 426.4104 355.1159 426.8205 355.2154 427.2052 355.3291ZM433.9712 368.7197C433.188 368.6689 432.1083 368.5391 430.7134 368.3237 429.3162 368.1105 427.9187 367.897 426.5031 367.6748 425.092 367.4591 424.0653 367.3247 423.4283 367.2808 422.5314 367.3851 421.7783 367.5821 421.1688 367.8647 420.9443 367.969 420.5248 368.231 419.9108 368.6411L431.1791 370.6313ZM423.0411 373.7942C423.5443 373.8453 424.4941 374.0374 425.8823 374.3898 427.0637 374.6911 428.271 375.0109 429.4831 375.3677 430.7017 375.7175 431.3506 375.9236 431.4129 375.9956 431.5986 376.1348 431.7282 376.2133 431.8092 376.2272 431.8929 376.2482 432.0085 376.2947 432.1383 376.3803 432.75 376.079 433.23 375.838 433.5843 375.6711 434.2286 375.3468 434.7079 375.1013 435.0022 374.9321 434.2932 374.6608 433.633 374.2693 433.0443 373.7571 432.5275 373.3214 432.1916 372.9161 432.0156 372.5524 431.6403 372.7933 431.3758 372.9626 431.2553 373.0482 431.0609 373.2058 430.8755 373.3424 430.6878 373.4813L430.609 373.4768C430.3843 373.4558 429.7819 373.3469 428.8133 373.1479 428.7555 373.1386 427.8563 372.9487 426.1068 372.587 425.1243 372.3786 424.5497 372.2536 424.3714 372.2326 423.9077 372.1861 423.1803 372.2187 422.1884 372.3483 421.8296 372.3948 421.2873 372.4758 420.5667 372.6009 420.393 372.6102 420.247 372.7171 420.1333 372.9231 420.0358 373.0898 419.9757 373.2823 419.9573 373.4906L419.9409 373.6692 419.561 377.3001 419.7626 377.3208C419.7416 377.4784 419.7163 377.6638 419.6837 377.8909 419.6514 378.1134 419.6305 378.2642 419.6211 378.3288 419.5862 378.6049 419.5749 378.8388 419.5979 379.0219 419.6188 379.1976 419.6931 379.4204 419.8252 379.7008 419.6514 379.8513 419.5145 380.0183 419.4315 380.1988 419.3685 380.3264 419.3246 380.4744 419.3014 380.6391 419.2946 380.6923 419.2855 380.7482 419.2739 380.8012 419.2713 380.85 419.2645 380.8987 419.2529 380.9404L418.3492 387.4445 418.5924 387.4816 415.7444 400.8076C415.5593 401.6718 415.7654 402.3598 416.3771 402.8834 416.0529 402.8488 415.7677 402.9415 415.5129 403.187 415.2835 403.4004 415.1327 403.6737 415.0658 404.0005L414.8478 405.0317H414.8756L414.6673 405.678C413.3951 405.4348 412.1252 405.5366 410.8578 405.9723 409.5278 406.4267 408.7191 407.0914 408.4294 407.9767 408.1306 408.8826 407.9013 409.9022 407.732 411.0423 407.5605 412.187 407.5072 413.0904 407.5722 413.765 407.5929 413.8855 407.6348 413.9617 407.7065 413.9827 407.7204 413.985 407.7437 413.9827 407.7714 413.964 407.827 413.9201 407.8687 413.8668 407.8896 413.8087L407.9081 413.7486C408.3392 412.4347 408.9552 411.26 409.7432 410.2543 410.4476 409.3483 411.2124 408.6485 412.0418 408.162 412.7995 407.7125 413.4691 407.5155 414.0414 407.5758 413.8654 408.1181 413.7426 408.6255 413.6686 409.1374 413.5618 409.9229 413.5805 410.5672 413.7148 411.0678 413.9118 411.7258 414.3172 412.1614 414.9289 412.3517 415.3323 412.4789 416.0412 412.5297 417.0583 412.5067 418.2565 412.4883 419.2877 412.3446 420.1543 412.0824 421.2573 411.7513 421.9152 411.2529 422.1332 410.5998 422.3069 410.0576 422.1723 409.4597 421.7298 408.8061 421.3474 408.2477 420.7961 407.7173 420.08 407.2164 419.4198 406.7671 418.7962 406.4522 418.1984 406.2643 418.1289 406.2433 418.064 406.2249 418.0039 406.211 417.9529 406.2016 417.8764 406.1877 417.7743 406.1764L418.0572 405.3237 417.9552 405.2934 418.3095 403.6297C418.356 403.4166 418.5298 403.2751 418.8217 403.2034 419.1208 403.134 419.4612 403.134 419.832 403.2034 420.1404 403.2729 420.4137 403.3749 420.6546 403.5254L423.076 402.2371C422.6961 401.9893 422.2372 401.8062 421.6881 401.6974 421.306 401.6205 420.9282 401.5721 420.548 401.5721 420.1702 401.5653 419.8158 401.5791 419.4913 401.6183 419.4496 401.6276 419.4011 401.6205 419.3408 401.6066 419.1253 401.563 419.0097 401.417 418.9725 401.1712 418.9306 400.9187 418.9632 400.5848 419.0488 400.1562 419.7322 399.7162 420.5806 398.9676 421.5886 397.9111 422.5918 396.8612 423.4561 395.8257 424.1744 394.8225 424.9877 393.6801 425.465 392.7903 425.5997 392.1483 425.7315 391.5434 425.4676 390.765 424.8116 389.8264 424.2229 388.9854 423.6046 388.3669 422.9461 387.968 422.5918 387.936 422.3693 387.9218 422.2837 387.915 422.1099 387.915 421.9013 387.9218 421.6581 387.9473L421.8412 387.1015 421.5351 387.0391 421.8806 384.5713C422.0286 384.7499 422.1816 384.8842 422.3344 384.9721 422.4943 385.0673 422.6635 385.1203 422.8373 385.1413 423.0275 385.1762 423.2313 385.1623 423.4697 385.1252 423.6321 385.0948 423.8895 385.037 424.2438 384.9395 424.8139 384.7754 425.4372 384.4928 426.0835 384.0846 426.8438 383.6285 427.4649 383.1043 427.9558 382.5181 428.5491 381.8208 428.8921 381.1048 428.9964 380.3632 429.0866 379.7263 428.7345 379.1585 427.9581 378.6508 427.2585 378.1967 426.4291 377.9002 425.4698 377.7727L425.2728 377.752C425.0733 377.7197 424.9066 377.7197 424.7697 377.7219 424.3666 377.7449 424.0216 377.782 423.7364 377.8424 423.3586 377.9257 423.032 378.0414 422.7678 378.2038L423.0065 376.4914 422.7608 376.4636ZM430.4514 384.474 429.2535 385.3383C429.1679 385.4217 429.1214 385.5212 429.103 385.6258 429.0914 385.6997 429.0914 385.7553 429.1004 385.8086 429.1098 385.8596 429.133 385.92 429.1702 385.9869L430.2567 387.4051C430.3054 387.498 430.361 387.5743 430.4237 387.6276 430.4701 387.6738 430.5348 387.7041 430.6 387.7132 430.704 387.7087 430.8035 387.6693 430.9174 387.6137L432.4952 386.3903C432.5786 386.3115 432.625 386.2278 432.6367 386.1261 432.6506 386.0427 432.6437 385.9614 432.6205 385.8922 432.5924 385.8202 432.5508 385.7437 432.4861 385.651L431.6678 384.6895C431.5844 384.5667 431.5521 384.4834 431.5637 384.4414 431.5637 384.423 431.5683 384.4043 431.587 384.3788 431.6309 384.3303 431.6958 384.2654 431.7976 384.1775L432.9309 383.3201C432.97 383.2713 433.0026 383.2274 433.0259 383.1812 433.0468 383.1369 433.063 383.0882 433.0701 383.0329 433.0817 382.9445 433.0746 382.8637 433.0468 382.7869 433.0236 382.7083 432.9726 382.6363 432.917 382.5692L431.8209 381.1119C431.7214 381.0098 431.6264 380.9565 431.5243 380.9378 431.3897 380.9194 431.2718 380.9843 431.1607 381.1351L429.7241 382.2633C429.6382 382.3237 429.5849 382.4325 429.5616 382.5856 429.5407 382.7151 429.5687 382.8124 429.6359 382.8844L430.4886 383.9596C430.5906 384.1149 430.6323 384.2121 430.6255 384.27 430.6161 384.321 430.558 384.3859 430.4514 384.474ZM422.4226 380.8244C422.4898 380.3264 422.6219 379.9647 422.8143 379.7561 422.9138 379.6311 423.0575 379.55 423.2313 379.506 423.2639 379.4944 423.301 379.499 423.3424 379.506 423.3841 379.5129 423.4167 379.5151 423.4399 379.5222 423.9309 379.5849 424.406 379.7631 424.8626 380.0503 425.4395 380.3958 425.6898 380.7873 425.6317 381.2136 425.5577 381.6887 425.3284 382.1173 424.9227 382.479 424.4916 382.8753 423.989 383.0672 423.4238 383.0672 423.1689 383.0352 422.9184 382.7526 422.6868 382.2146 422.4594 381.6933 422.3622 381.2253 422.4226 380.8244ZM421.1529 390.3225C421.7808 390.4498 422.2627 390.7811 422.5918 391.3305 422.9184 391.8773 423.0136 392.4564 422.877 393.0823 422.7585 393.6591 422.4852 394.2754 422.0541 394.9404 421.7253 395.4455 421.2828 395.9901 420.738 396.5786 420.3465 397.0003 419.9596 397.3782 419.5726 397.7116ZM417.2556 411.3595C416.755 411.2022 416.5809 410.6299 416.7363 409.6519 416.7989 409.2579 416.91 408.8316 417.056 408.3843 417.4546 408.5073 417.8971 408.8083 418.3886 409.2973 418.9238 409.8257 419.1347 410.2404 419.0394 410.5417 418.9703 410.7597 418.7755 410.9494 418.451 411.1234 418.0689 411.3227 417.6726 411.4012 417.2556 411.3595ZM404.159 422.0555C404.1544 422.4934 404.1544 422.7228 404.1544 422.7321 404.1612 422.9478 404.1893 423.059 404.2213 423.068 404.2494 423.0845 404.2981 423.0357 404.3582 422.9246 404.4161 422.8226 404.4974 422.6233 404.5969 422.3523 404.8053 421.78 405.1553 421.1447 405.6443 420.4335 406.1239 419.7268 406.6013 419.1846 407.067 418.7908 407.9937 417.975 408.835 417.4282 409.5717 417.1269 410.1673 416.8837 411.0687 416.6867 412.2641 416.5336 412.7091 416.8743 413.1448 417.3934 413.5618 418.0887 413.9836 418.7908 414.2387 419.4003 414.3266 419.9309L417.3341 419.7336C417.0909 418.7744 416.5693 417.8639 415.7725 416.9854 415.0749 416.2187 414.4144 415.7252 413.8007 415.5097 412.306 414.9859 410.8717 414.7705 409.4838 414.8631 408.367 414.942 407.3797 415.19 406.527 415.6231 405.8039 415.9845 405.3869 416.3301 405.2571 416.6637 404.949 417.5141 404.6896 418.4246 404.4903 419.4023 404.2888 420.378 404.1799 421.2609 404.159 422.0555ZM418.5808 434.3156C417.8648 434.0098 416.8916 433.5208 415.6637 432.858 414.4215 432.1928 413.1842 431.5187 411.933 430.8398 410.6837 430.1634 409.7687 429.6929 409.1803 429.4519 408.2998 429.2388 407.5257 429.1713 406.849 429.2388 406.6058 429.2643 406.1239 429.3638 405.4008 429.5469L415.2926 435.1844ZM400.3401 440.3704C400.1783 440.6598 400.3495 441.0468 400.8572 441.5448 401.2835 441.9689 401.7861 442.3329 402.3655 442.6432 402.4327 442.6778 402.4998 442.715 402.567 442.7498 402.6297 442.7824 402.6969 442.8079 402.7757 442.8286 402.3377 443.0789 401.7121 443.3037 400.9102 443.4936 399.8724 443.7485 399.2536 443.92 399.0359 443.9965 398.4103 444.2491 397.9746 444.5734 397.7473 444.9813L395.5045 448.969 395.5694 449.0014 395.0827 449.7684C394.9019 450.0604 394.8721 450.3943 394.9948 450.7693 395.1386 451.1843 395.4421 451.6058 395.9192 452.037 395.3585 451.8884 394.8996 451.8099 394.5336 451.8122 394.033 451.8193 393.6926 451.9653 393.5117 452.2524L391.0022 456.1985C390.7219 456.6387 390.5623 456.9517 390.532 457.151 390.46 457.4639 390.5711 457.7349 390.8585 457.971 390.9909 458.0915 391.1783 458.2284 391.4263 458.3789 391.9314 458.6803 392.506 458.9651 393.1523 459.22 393.8176 459.4751 394.4086 459.6324 394.9345 459.6905 395.034 459.716 395.1476 459.7138 395.2752 459.7067 395.3957 459.6905 395.4742 459.6579 395.509 459.6117 395.5368 459.5562 395.4997 459.4958 395.3724 459.4192 395.303 459.373 395.1822 459.3246 395.0178 459.2665 394.8951 459.2245 394.7814 459.1715 394.6703 459.1134 394.5569 459.0624 394.4594 459.0094 394.3854 458.9558 394.0007 458.7242 393.7876 458.4487 393.7479 458.1312 393.7136 457.8437 393.8199 457.5076 394.0747 457.1022L396.7625 452.8712C397.3187 453.2859 398.0415 453.9464 398.9455 454.8478 399.8863 455.8068 400.5746 456.5854 401.0077 457.1901L404.1893 456.7847C403.7281 456.2867 403.1719 455.7353 402.5392 455.142 402.1384 454.7455 401.6356 454.2755 401.0332 453.7446 400.7412 453.4804 400.4515 453.2255 400.1621 452.9662 398.9778 451.9188 398.3383 451.2977 398.2246 451.1149 398.1135 450.9179 398.1991 450.6004 398.4772 450.1624L398.7553 449.7219 398.651 449.6596 400.2684 446.7841C400.6602 446.089 401.2929 445.4167 402.1733 444.7519 402.6991 444.3883 403.0447 444.1516 403.1974 444.0288 403.2181 444.8282 403.1419 445.665 402.9701 446.5431 402.8125 447.3215 402.641 447.8868 402.4443 448.2417 402.1801 448.7117 401.8652 449.0734 401.5057 449.3211 401.288 449.4648 400.915 449.6502 400.3798 449.8563 400.8827 450.0164 401.383 450.1253 401.8603 450.1854 402.5625 450.2761 403.1929 450.269 403.7465 450.1576 404.4393 450.0187 404.9932 449.7313 405.4147 449.2797 405.5584 449.1082 405.6834 448.9274 405.7948 448.7255 406.0936 448.1952 406.3209 447.4976 406.4854 446.652 406.6223 445.9266 406.7147 445.0507 406.7705 444.0149 406.8629 443.2572 407.0741 442.4766 407.4029 441.6588 407.6671 441.0051 408.0078 440.2774 408.4571 439.4945 408.0008 439.4574 407.4678 439.4203 406.8584 439.3806 406.2076 439.3392 405.7209 439.3066 405.4079 439.2904 405.3407 439.6796 405.1925 440.0714 404.97 440.4745 404.7871 440.7968 404.5482 441.1278 404.2701 441.4592 404.0501 441.714 403.7465 442.0293 403.3757 442.4023 403.2133 442.277 403.1186 442.1426 403.0931 441.9992 403.0651 441.8878 403.079 441.7838 403.1419 441.6746L406.7031 435.3446C407.1319 435.5785 407.922 436.1253 409.0737 436.9847 410.1092 437.7589 411.099 438.5256 412.0373 439.2904 412.9736 440.0529 413.4691 440.4722 413.5249 440.5578 413.6338 440.7409 413.7077 440.8591 413.7588 440.9101 413.898 441.0584 413.9904 441.1627 414.0207 441.216 415.0565 441.144 415.5962 441.1001 415.6427 441.1001 416.3681 441.0445 416.8984 440.9957 417.253 440.9515 416.7065 440.4421 416.2615 439.8372 415.9137 439.1328 415.6172 438.5443 415.4641 438.0508 415.4457 437.6452 414.9777 437.7217 414.6741 437.7798 414.5539 437.798 414.3243 437.8584 414.0927 437.9142 413.8654 437.9627L413.7704 437.9071C413.5156 437.7728 412.9965 437.4459 412.2088 436.9178 411.9075 436.7092 411.1637 436.2089 409.9912 435.4044 409.9218 435.3582 409.4444 435.0268 408.5498 434.4058 408.2326 434.2365 407.7366 434.0537 407.0625 433.8544 406.3419 433.6736 405.6282 433.4927 404.9028 433.3031 404.7335 433.2589 404.5504 433.3099 404.3696 433.4468 404.2191 433.5531 404.0918 433.7014 403.9804 433.8893L403.8973 434.0353ZM382.9178 460.1285C382.7974 460.1608 382.6998 460.2348 382.612 460.3578 382.5422 460.4505 382.5147 460.5525 382.5215 460.6705L382.8044 462.3945C382.7906 462.6147 382.839 462.7678 382.9524 462.8463 383.0128 462.8906 383.1055 462.909 383.2353 462.9022L385.2556 462.5476C385.3463 462.515 385.4086 462.462 385.469 462.3874 385.5847 462.2298 385.6127 462.0586 385.5569 461.8894L385.3602 460.6356C385.3485 460.4831 385.3556 460.3949 385.3695 460.3717 385.397 460.3371 385.4923 460.3 385.6683 460.258L387.1256 460.0125C387.2231 459.9686 387.3064 459.9014 387.3713 459.811 387.4686 459.6834 387.5034 459.5281 387.4779 459.3637L387.1837 457.5472C387.1698 457.4937 387.1488 457.45 387.1349 457.422 387.112 457.3616 387.0677 457.3154 387.0261 457.2782 386.9218 457.2065 386.769 457.2088 386.5859 457.2876L384.7878 457.6051C384.6628 457.6374 384.5676 457.7046 384.4911 457.8089 384.4216 457.9061 384.3935 458.0107 384.4029 458.1241L384.6209 459.4589C384.6674 459.6534 384.6764 459.7648 384.6487 459.7968 384.6257 459.8249 384.5443 459.8504 384.389 459.8853ZM390.9351 461.8083C391.4008 462.2369 391.7506 462.7539 391.9941 463.3447 392.1934 463.8543 392.2997 464.3572 392.2974 464.8762L395.7755 465.0687C395.2332 464.0374 394.5685 463.0944 393.785 462.2346 393.1248 461.5092 392.4111 460.8723 391.6395 460.3394 391.1434 459.9893 390.6896 459.7112 390.2791 459.5097 389.8692 459.3036 389.4917 459.1531 389.1532 459.0488L384.4681 465.3975 384.5305 465.444 384.241 465.8216C383.8099 466.3891 383.6339 466.8783 383.7056 467.2976 383.7543 467.5292 383.9352 467.8398 384.2524 468.2268 383.8584 468.0414 383.4601 467.9742 383.0686 468.0369 382.6698 468.0992 382.3688 468.2614 382.1601 468.5372L379.8128 471.6051 379.7294 471.545 378.4459 473.0627C378.0887 473.4774 377.9289 473.9014 377.9592 474.3346 377.9915 474.6869 378.1539 475.0787 378.4598 475.5095 378.5105 475.5951 378.828 475.9707 379.3887 476.6542 379.1803 476.7446 378.8442 476.7446 378.3623 476.6635 377.6255 476.536 377.2222 476.4733 377.1459 476.4711 376.6963 476.4526 376.3718 476.564 376.1705 476.8047 376.1008 476.8764 376.0566 476.9368 376.0313 476.9949 375.8343 477.4167 375.6674 477.7756 375.5098 478.084 374.9794 479.1611 374.4649 479.9908 373.9643 480.5819L374.305 480.8296C375.0466 481.4368 375.7581 481.8796 376.4392 482.169 376.9951 482.396 377.4424 482.4723 377.7874 482.3983 378.3623 482.4519 379.1245 482.3427 380.0837 482.0485 381.1266 481.7265 381.9747 481.3095 382.6397 480.7973L383.11 481.555 386.2522 481.7679C385.886 481.2908 385.3346 480.6116 384.6047 479.7244 384.4471 479.5367 383.8538 478.8346 382.8251 477.5995 382.1508 476.8095 381.6828 476.2233 381.3999 475.8593 381.1289 475.5141 380.9852 475.2476 380.9761 475.0506 380.9713 474.893 381.0665 474.6986 381.2632 474.4692 381.3143 474.4091 381.363 474.3488 381.4163 474.2884 381.4719 474.2167 381.5274 474.1608 381.583 474.0939L381.6343 474.0381 381.6689 473.9939 381.7894 474.08 384.9571 469.944C385.0637 469.798 385.3253 469.777 385.74 469.8743 386.1502 469.9738 386.551 470.173 386.9289 470.4443 387.091 470.5622 387.2254 470.6739 387.339 470.7825 387.4479 470.9007 387.5519 471.0421 387.6565 471.2066L391.0161 471.0373C390.8585 470.8613 390.6524 470.6623 390.4021 470.4489 390.1448 470.2382 389.897 470.0364 389.6444 469.8488 389.1832 469.5151 388.713 469.2115 388.2543 468.9476 387.7792 468.69 387.3274 468.4771 386.8801 468.3172L386.8498 468.294C386.7364 468.2106 386.7364 468.023 386.8381 467.7194 386.9405 467.4203 387.112 467.1238 387.3413 466.8248L387.6588 466.41 387.5822 466.3522ZM393.6345 476.2417C393.5996 476.1536 393.556 476.0912 393.4885 476.0447 393.4052 475.9824 393.3009 475.9846 393.1872 476.0518L391.9059 476.265C391.8458 476.265 391.7784 476.3157 391.7115 476.4016 391.6556 476.4688 391.6256 476.5431 391.621 476.6357L391.7877 477.8751C391.7645 478.0259 391.7971 478.1163 391.8804 478.1764 391.9059 478.1951 391.9825 478.2183 392.1029 478.2438L393.4168 478.0074C393.5395 477.9935 393.6461 477.9286 393.7272 477.8243 393.7711 477.7571 393.7992 477.7132 393.8108 477.6551ZM389.876 475.287 388.669 475.4747C388.5576 475.505 388.4766 475.5583 388.4071 475.6416 388.3839 475.6788 388.3609 475.7227 388.3399 475.7783 388.3283 475.8293 388.3238 475.8755 388.3306 475.9126L388.5369 477.3447C388.5021 477.5346 388.5415 477.6622 388.6481 477.7478 388.7014 477.7826 388.7872 477.8011 388.8845 477.7988L390.5459 477.5255C390.5827 477.5091 390.6247 477.4907 390.6709 477.472 390.708 477.4442 390.7358 477.4167 390.7658 477.3773 390.8631 477.2543 390.8863 477.1176 390.8401 476.9623L390.6734 475.9404C390.6734 475.8086 390.6709 475.7434 390.6873 475.7366 390.7035 475.7088 390.7962 475.6833 390.9606 475.6462L392.1423 475.4398C392.2396 475.41 392.3229 475.3542 392.3765 475.2802 392.4275 475.2221 392.4505 475.1617 392.4527 475.0926 392.4666 475.0345 392.4643 474.9721 392.4527 474.9185L392.2421 473.4057C392.2396 473.3614 392.214 473.3175 392.1934 473.2642 392.1724 473.2203 392.1446 473.1831 392.1007 473.1554 392.0216 473.0953 391.8943 473.0975 391.7228 473.1667L390.2494 473.3824C390.1657 473.3989 390.0824 473.4612 389.9988 473.5653 389.9271 473.6628 389.8947 473.7438 389.9132 473.8181L390.073 474.9327C390.1127 475.1042 390.1127 475.1966 390.0756 475.2221 390.0523 475.2476 389.9829 475.2757 389.876 475.287ZM381.5994 479.7292C381.4347 479.8287 381.2423 479.8888 381.0132 479.9027 380.9529 479.9049 380.5588 479.8774 379.836 479.8332 379.4652 480.0603 379.1013 480.2828 378.7379 480.5192 378.36 480.7278 377.9521 480.8157 377.5329 480.7834 377.6233 480.4381 377.82 479.9908 378.1236 479.4486 378.4226 478.9086 378.754 478.4292 379.1106 478.01 379.2427 477.8476 379.3748 477.7109 379.5001 477.5973 379.6206 477.4859 379.7365 477.3934 379.8544 477.3285 380.0146 477.5831 380.3437 478.0397 380.8556 478.7167 381.1289 479.0687 381.3769 479.4024 381.5994 479.7292" fill="#231f20" fill-rule="evenodd"/>
<path transform="matrix(1,0,0,-1,0,841.8898)" d="M310.3614 587.272C270.648 589.5658 230.9417 593.1434 191.2329 587.272 184.3325 560.1866 194.4003 536.5522 186.4664 513.4133 211.8022 513.4133 234.4496 510.5004 259.7876 510.2433 264.1343 513.0726 275.2614 520.3763 276.1279 519.9267L282.5348 516.5762 274.1839 510.2759C285.6166 510.482 294.1622 511.2862 305.5949 513.4133 299.7743 538.0282 299.2414 562.6522 310.3614 587.272" fill="#ed1c24" fill-rule="evenodd"/>
</g>
</svg>
